<svg width="61" height="46" viewBox="0 0 61 46" fill="none" xmlns="http://www.w3.org/2000/svg">
<path d="M26.3997 40.6172C27.3235 40.9245 27.9542 41.1605 28.767 41.6049C29.596 41.9809 30.0513 42.0308 30.9192 41.7481C31.728 41.4123 32.507 41.0156 33.2865 40.6172C33.4381 40.6172 33.5896 40.6172 33.7457 40.6172C33.7457 42.1288 33.7457 43.6404 33.7457 45.1978C32.7005 44.8502 31.94 44.527 31.0196 43.9856C29.8684 43.6034 28.7469 44.183 27.6909 44.6396C27.2648 44.8238 26.8387 45.008 26.3997 45.1978C26.3997 43.6862 26.3997 42.1746 26.3997 40.6172Z" fill="#464647"/>
<path d="M12.8555 0.0789908C12.8555 0.985948 12.8555 1.89291 12.8555 2.82735C12.5275 2.8362 12.5275 2.8362 12.1928 2.84524C11.9049 2.85823 11.617 2.87122 11.3203 2.8846C11.0353 2.89523 10.7504 2.90586 10.4568 2.91681C9.5289 3.07568 9.14738 3.30744 8.49382 3.97249C8.22673 4.40153 8.22673 4.40153 8.09209 4.85998C8.01574 5.07875 8.01574 5.07875 7.93785 5.30194C7.60564 6.56052 7.52113 7.82524 7.46079 9.12029C7.44681 9.39736 7.44681 9.39736 7.43254 9.68003C7.40295 10.2682 7.37439 10.8564 7.34601 11.4446C6.99193 18.6905 6.99193 18.6905 6.37037 20.1191C6.27922 20.3387 6.18808 20.5584 6.09417 20.7847C5.54664 21.7007 4.779 22.17 3.90257 22.7529C3.59954 22.7529 3.29652 22.7529 2.98432 22.7529C2.98432 22.9041 2.98432 23.0552 2.98432 23.211C3.13583 23.2204 3.28734 23.2299 3.44344 23.2396C4.65761 23.5929 5.62964 24.2441 6.28249 25.342C7.10764 27.2709 7.14253 29.3039 7.21509 31.3746C7.23199 31.7938 7.24904 32.2129 7.2662 32.6321C7.29216 33.2817 7.31727 33.9313 7.34007 34.5811C7.28252 38.9661 7.28252 38.9661 9.18251 42.6785C9.86238 43.0176 10.522 42.9884 11.2773 43.0364C11.5714 43.0556 11.8656 43.0747 12.1686 43.0945C12.3953 43.1084 12.622 43.1223 12.8555 43.1366C12.8555 44.0435 12.8555 44.9505 12.8555 45.8849C8.41032 46.1164 8.41032 46.1164 6.65732 44.7398C4.5668 42.789 4.46082 39.6255 4.35855 36.9653C4.34511 36.5508 4.33181 36.1363 4.31865 35.7217C4.30304 35.309 4.28705 34.8963 4.27067 34.4835C4.24681 33.8804 4.22303 33.2773 4.20027 32.6741C4.27155 28.9391 4.27155 28.9391 2.92782 25.5997C2.39653 25.1676 1.86664 24.9915 1.21955 24.7712C0.8171 24.6343 0.414648 24.4973 0 24.3561C0 23.4492 0 22.5422 0 21.6078C0.397717 21.4802 0.795435 21.3527 1.2052 21.2213C2.25527 20.838 2.88816 20.5581 3.44344 19.5465C3.8067 18.5927 3.97616 17.7451 4.03977 16.7284C4.05778 16.4508 4.07579 16.1733 4.09435 15.8873C4.11156 15.5927 4.12876 15.2981 4.14648 14.9945C4.1661 14.6869 4.18587 14.3794 4.20577 14.0718C4.31231 12.3836 4.38402 10.6967 4.42816 9.00567C4.50519 6.27288 4.61184 3.54287 6.49053 1.35923C8.29551 -0.298963 10.5623 -0.015573 12.8555 0.0789908Z" fill="#0E1468"/>
<path d="M10.3303 43.1365C11.1636 43.1365 11.9969 43.1365 12.8554 43.1365C12.8554 44.0435 12.8554 44.9505 12.8554 45.8849C11.5676 45.8849 10.2798 45.8849 8.95288 45.8849C8.95288 45.8093 8.95288 45.7337 8.95288 45.6559C10.165 45.6559 11.3771 45.6559 12.6259 45.6559C12.6259 45.0512 12.6259 44.4466 12.6259 43.8236C12.3986 43.937 12.3986 43.937 12.1668 44.0527C11.7077 44.0618 11.2484 44.0626 10.7894 44.0527C10.8651 43.9015 10.9409 43.7503 11.0189 43.5946C10.7917 43.4434 10.5644 43.2923 10.3303 43.1365Z" fill="#0E1468"/>
<path d="M47.29 0.0789825C49.5486 -0.00117451 51.4265 -0.012237 53.4308 1.12393C55.3206 3.16637 55.6076 5.83503 55.6754 8.49314C55.6916 8.96447 55.7079 9.4358 55.7242 9.90713C55.7473 10.6397 55.7695 11.3723 55.7905 12.105C55.7351 16.4087 55.7351 16.4087 57.1756 20.3624C58.1136 21.1389 58.9639 21.3248 60.1456 21.6078C60.2592 23.0816 60.2592 23.0816 60.3751 24.5852C60.0247 24.6371 59.6744 24.6891 59.3134 24.7426C58.4211 24.9315 57.6392 25.1126 56.9694 25.7764C55.2634 28.4057 55.7674 32.8755 55.6331 35.8639C55.5973 36.6409 55.5579 37.4177 55.5184 38.1945C55.5044 38.5478 55.5044 38.5478 55.4901 38.9082C55.3824 41.0051 54.9192 43.1218 53.4882 44.7398C52.0483 45.7299 50.6725 45.9203 48.9544 45.8992C48.7943 45.8982 48.6342 45.8972 48.4692 45.8961C48.0762 45.8934 47.6831 45.8893 47.29 45.8849C47.29 44.978 47.29 44.071 47.29 43.1366C47.4922 43.128 47.6943 43.1194 47.9025 43.1106C48.1691 43.0956 48.4358 43.0805 48.7105 43.065C49.106 43.0451 49.106 43.0451 49.5094 43.0247C50.32 42.9005 50.7694 42.7072 51.4222 42.2204C52.943 39.7478 52.6746 35.9196 52.8139 33.0879C53.176 25.9614 53.176 25.9614 54.5625 24.3722C55.2519 23.7552 55.7833 23.3899 56.7021 23.211C56.7021 23.0598 56.7021 22.9087 56.7021 22.7529C56.4038 22.6891 56.4038 22.6891 56.0995 22.6241C55.0681 22.1858 54.5232 21.6469 53.9474 20.6917C53.1826 18.651 52.9956 16.5468 52.8883 14.3898C52.8621 13.9141 52.8356 13.4384 52.809 12.9628C52.7678 12.2186 52.7279 11.4745 52.6913 10.7301C52.6554 10.0078 52.6144 9.28584 52.5727 8.56381C52.5631 8.34449 52.5535 8.12516 52.5436 7.89919C52.4422 6.25243 52.1738 4.41521 50.8886 3.26661C50.1488 3.0134 49.4913 2.93826 48.7105 2.89891C48.4438 2.88385 48.1772 2.8688 47.9025 2.85328C47.7004 2.84472 47.4983 2.83616 47.29 2.82734C47.29 1.92038 47.29 1.01342 47.29 0.0789825Z" fill="#0E1468"/>
<path d="M55.3245 6.03372C55.4003 6.03372 55.476 6.03372 55.5541 6.03372C55.8282 12.6602 55.8282 12.6602 55.7837 15.882C55.7079 15.882 55.6321 15.882 55.5541 15.882C55.5541 14.8995 55.5541 13.9169 55.5541 12.9046C55.4026 12.9046 55.2511 12.9046 55.095 12.9046C55.1707 10.6372 55.2465 8.36982 55.3245 6.03372Z" fill="#0E1468"/>
<path d="M50.5039 44.9688C51.2615 44.9688 52.019 44.9688 52.7995 44.9688C51.9775 45.7889 50.9516 45.8742 49.8233 45.9296C49.5223 45.9243 49.2214 45.919 48.9113 45.9135C48.7543 45.9114 48.5974 45.9094 48.4356 45.9072C48.0537 45.9019 47.6719 45.8937 47.29 45.8849C47.29 45.8093 47.29 45.7337 47.29 45.6558C48.2749 45.6558 49.2597 45.6558 50.2744 45.6558C50.3501 45.4291 50.4259 45.2024 50.5039 44.9688Z" fill="#0E1468"/>
<path d="M59.2272 21.6077C59.4545 21.6077 59.6817 21.6077 59.9159 21.6077C59.9159 22.5147 59.9159 23.4216 59.9159 24.3561C59.5371 24.3561 59.1583 24.3561 58.7681 24.3561C58.8438 23.827 58.9196 23.298 58.9976 22.7529C59.1491 22.7529 59.3007 22.7529 59.4568 22.7529C59.5325 22.4506 59.6083 22.1482 59.6863 21.8368C59.5348 21.7612 59.3833 21.6856 59.2272 21.6077Z" fill="#0E1468"/>
<path d="M55.7836 16.7981C55.8594 16.7981 55.9352 16.7981 56.0132 16.7981C56.2405 17.8562 56.4677 18.9144 56.7019 20.0045C56.4746 19.929 56.2474 19.8534 56.0132 19.7755C55.7602 18.7657 55.7661 17.8325 55.7836 16.7981Z" fill="#0E1468"/>
<path d="M16.299 3.05637C16.3748 3.05637 16.4506 3.05637 16.5286 3.05637C16.5286 3.661 16.5286 4.26564 16.5286 4.8886C16.2256 4.8886 15.9226 4.8886 15.6104 4.8886C16.0408 3.31402 16.0408 3.31402 16.299 3.05637Z" fill="#828282"/>
<path d="M22.1385 21.9799C22.3369 21.9773 22.5353 21.9746 22.7398 21.9719C23.8239 21.9767 24.7541 22.0951 25.7927 22.4103C27.2177 22.8325 28.5663 22.8465 30.0441 22.8245C30.2968 22.8252 30.5495 22.826 30.8099 22.8267C31.9964 22.8188 32.8798 22.775 33.9753 22.2948C36.4734 21.7294 40.4492 21.5207 42.7346 22.8012C43.045 23.0011 43.3525 23.2054 43.6564 23.4149C44.2341 23.7647 44.7865 23.8481 45.4535 23.8981C45.4721 24.27 45.4854 24.6423 45.4965 25.0146C45.5045 25.2218 45.5125 25.4291 45.5207 25.6426C45.4985 25.8227 45.4764 26.0028 45.4535 26.1884C44.7648 26.6464 44.7648 26.6464 44.0761 26.6464C44.095 26.9109 44.114 27.1755 44.1335 27.448C44.131 28.8299 43.5972 29.8604 42.6413 30.8405C41.1248 31.769 39.7694 32.0364 38.0214 32.0143C37.8299 32.0126 37.6384 32.0108 37.4411 32.009C35.6434 31.9611 34.2177 31.7182 32.9289 30.395C32.2811 29.5837 31.9634 28.7095 31.6367 27.7343C31.2595 26.5191 31.2595 26.5191 30.5319 25.5013C29.8241 25.4631 29.8241 25.4631 29.1545 25.5013C29.1128 25.6261 29.0711 25.751 29.0281 25.8797C28.9063 26.2441 28.7837 26.6082 28.6604 26.9721C28.5361 27.3493 28.4177 27.7286 28.3071 28.1101C27.9124 29.4331 27.444 30.5148 26.1952 31.2555C24.8392 31.8969 23.7146 32.0427 22.2246 32C22.0265 31.9997 21.8284 31.9994 21.6242 31.9991C19.8929 31.9753 18.6049 31.6233 17.2173 30.5399C16.1885 29.1807 16.0424 28.2907 16.0695 26.6464C15.8848 26.6133 15.7001 26.5803 15.5099 26.5462C14.9216 26.4174 14.9216 26.4174 14.6921 26.1884C14.6755 25.8022 14.6728 25.4154 14.6777 25.0289C14.6798 24.8184 14.6819 24.6079 14.684 24.391C14.6867 24.2283 14.6893 24.0657 14.6921 23.8981C14.9335 23.8366 15.175 23.7752 15.4238 23.712C16.2687 23.4896 16.2687 23.4896 16.8299 23.1108C18.4872 22.1494 20.2545 21.9548 22.1385 21.9799Z" fill="#93C64A"/>
<path d="M18.824 0.995087C19.0905 1.51429 19.3377 2.03529 19.5728 2.56967C20.3156 4.33647 20.3156 4.33647 21.768 5.46385C24.0217 5.96844 26.1523 5.4639 28.3652 5.00311C32.7668 4.0966 36.8469 3.80572 40.7742 6.31913C42.5405 7.61623 43.7239 9.04113 44.5351 11.0724C44.6082 11.2377 44.6813 11.4031 44.7566 11.5734C45.985 14.8266 45.3836 19.5261 44.3055 22.7529C44.154 22.7529 44.0025 22.7529 43.8464 22.7529C43.8126 22.4978 43.7789 22.2427 43.7442 21.9799C43.2905 18.8063 42.6513 14.8551 39.9402 12.7794C37.9881 11.4954 35.8262 11.513 33.5654 11.9134C33.2619 11.9762 32.9585 12.0394 32.6552 12.103C30.9303 12.4489 29.2332 12.5308 27.4757 12.5468C27.2294 12.5518 26.9831 12.5568 26.7294 12.562C24.3952 12.5562 21.9384 12.0486 20.2014 10.3853C18.5848 8.66199 18.3072 6.64944 18.2932 4.37327C18.2919 4.19722 18.2906 4.02117 18.2893 3.83978C18.3025 2.80629 18.4343 1.96784 18.824 0.995087Z" fill="#444445"/>
<path d="M30.1588 25.2866C30.8336 25.527 31.0904 25.7924 31.4581 26.3995C31.7406 27.0065 31.9364 27.626 32.1388 28.2639C32.5348 29.4838 32.8188 30.3167 33.9313 31.0382C35.9862 32.0722 38.7147 32.0098 40.9249 31.5178C42.062 31.1005 42.8436 30.5496 43.6169 29.6238C43.1015 32.7087 41.5928 35.2576 39.1171 37.1898C37.6486 38.1842 36.1453 38.7925 34.4344 39.243C34.2397 39.2947 34.045 39.3464 33.8443 39.3996C29.3898 40.3849 24.7413 39.6089 20.8902 37.1818C18.9032 35.6157 17.22 33.3009 16.7581 30.769C16.8717 30.4288 16.8717 30.4288 16.9876 30.0819C17.1628 30.2236 17.338 30.3653 17.5185 30.5113C19.5122 32.0841 22.1107 31.9221 24.5632 31.6851C25.7823 31.3604 26.5521 30.87 27.404 29.953C27.8505 29.0109 28.1747 28.055 28.4819 27.0597C28.6675 26.501 28.8533 26.0066 29.1544 25.5013C29.6136 25.2722 29.6136 25.2722 30.1588 25.2866Z" fill="#FBFCFA"/>
<path d="M37.8778 23.3827C38.0512 23.381 38.2246 23.3792 38.4032 23.3774C39.8765 23.3824 41.1642 23.5385 42.4609 24.2953C43.2306 25.1501 43.0692 25.9425 43.0259 27.0419C42.864 28.2837 42.4671 29.1823 41.5651 30.0532C39.8297 30.9976 37.9398 31.0673 36.026 30.5954C34.5522 30.0518 34.5522 30.0518 34.1438 29.3626C34.0603 29.1518 34.0603 29.1518 33.9752 28.9367C33.8237 28.9367 33.6722 28.9367 33.5161 28.9367C33.2552 28.0972 33.2403 27.2929 33.2291 26.4174C33.2202 25.9993 33.2202 25.9993 33.2112 25.5728C33.2942 24.7367 33.3362 24.4402 33.9752 23.8981C35.2855 23.4529 36.5022 23.3687 37.8778 23.3827Z" fill="#FCFDFA"/>
<path d="M21.5085 23.614C21.9907 23.6118 22.4727 23.6047 22.9549 23.5975C23.2629 23.596 23.5709 23.5948 23.8789 23.5939C24.1585 23.5917 24.4381 23.5896 24.7262 23.5874C25.5464 23.6761 25.9753 23.8638 26.6292 24.3561C27.1673 25.4298 26.97 26.8559 26.8588 28.0206C26.5525 28.9316 26.1321 29.581 25.3173 30.1069C23.6099 30.8971 21.2602 31.1575 19.4527 30.6124C18.2679 29.9945 17.6305 29.0287 17.2171 27.7916C17.178 27.3011 17.156 26.8091 17.1454 26.3172C17.1325 25.9279 17.1325 25.9279 17.1194 25.5308C17.2367 24.671 17.462 24.4253 18.1354 23.8981C19.1167 23.4085 20.4189 23.6171 21.5085 23.614Z" fill="#FCFDFA"/>
<path d="M16.2991 3.05637C16.3748 3.05637 16.4506 3.05637 16.5286 3.05637C16.5346 3.25329 16.5405 3.45021 16.5466 3.6531C16.7035 6.91495 17.3726 9.35605 19.6708 11.7022C20.6256 12.4522 21.814 12.7687 22.9564 13.1337C23.1837 13.2092 23.4109 13.2848 23.6451 13.3627C24.0521 13.3815 24.4599 13.3873 24.8673 13.3851C25.1033 13.3843 25.3393 13.3836 25.5825 13.3828C25.8285 13.3809 26.0746 13.379 26.3281 13.377C26.5768 13.376 26.8255 13.3749 27.0818 13.3739C27.6962 13.3712 28.3106 13.3674 28.925 13.3627C28.1848 13.9418 27.5434 14.249 26.6438 14.5365C26.4097 14.6126 26.1756 14.6888 25.9344 14.7673C24.7126 15.1229 23.5961 15.2319 22.3251 15.2236C22.1631 15.2231 22.0011 15.2227 21.8341 15.2222C20.661 15.2126 19.5255 15.1313 18.3651 14.9659C17.3254 17.4601 16.6773 19.8493 16.2991 22.5239C16.1476 22.5239 15.9961 22.5239 15.84 22.5239C15.0804 19.5692 15.0935 16.6496 15.1365 13.6235C15.1386 13.4607 15.1406 13.2979 15.1428 13.1301C15.1491 12.6809 15.1577 12.2316 15.1664 11.7824C15.1862 11.064 15.1862 11.064 14.9217 10.3853C14.7026 7.77432 15.0473 5.69626 16.0695 3.2854C16.1453 3.20982 16.221 3.13424 16.2991 3.05637Z" fill="#474748"/>
<path d="M16.9875 30.998C17.4203 31.5333 17.8505 32.0684 18.26 32.6218C20.3842 35.4587 23.2326 37.4652 26.7987 37.9968C31.2791 38.5127 35.8084 38.0678 39.5008 35.2744C40.8834 34.0792 41.9618 32.7736 42.9281 31.227C43.0418 31.4538 43.0418 31.4538 43.1577 31.6851C42.0694 34.6686 40.0092 36.8992 37.1891 38.3269C36.2854 38.7039 35.3809 38.9938 34.4343 39.2431C34.2396 39.2947 34.0449 39.3464 33.8443 39.3996C29.3897 40.3849 24.7412 39.6089 20.8901 37.1818C19.0777 35.7532 17.7535 33.8602 16.9875 31.6851C16.9875 31.4583 16.9875 31.2316 16.9875 30.998Z" fill="#4D4D4E"/>
<path d="M19.972 22.2644C20.1945 22.2641 20.4171 22.2639 20.6463 22.2635C20.9943 22.2649 20.9943 22.2649 21.3494 22.2662C21.5814 22.2653 21.8134 22.2645 22.0524 22.2635C22.275 22.2638 22.4975 22.2641 22.7268 22.2644C23.0321 22.2648 23.0321 22.2648 23.3437 22.2652C24.029 22.3035 24.6026 22.537 25.2519 22.7529C25.1004 22.7529 24.9489 22.7529 24.7928 22.7529C24.7928 22.9041 24.7928 23.0552 24.7928 23.211C25.0958 23.2866 25.3989 23.3621 25.7111 23.44C25.5411 23.4434 25.3711 23.4467 25.196 23.4501C24.4158 23.4673 23.6359 23.4894 22.8559 23.5116C22.5885 23.5167 22.3212 23.5219 22.0457 23.5272C20.6268 23.5711 19.4087 23.6816 18.0875 24.2184C17.516 24.4099 17.0885 24.3253 16.5286 24.1271C16.8632 23.2468 17.3067 22.9474 18.1355 22.5239C18.8148 22.298 19.2636 22.2653 19.972 22.2644Z" fill="#8FC641"/>
<path d="M30.1589 25.2866C31.0278 25.5962 31.2501 26.0794 31.6798 26.8754C31.8519 27.5339 31.8519 27.5339 31.9093 28.0206C31.6821 27.945 31.4548 27.8694 31.2206 27.7916C31.2206 27.9427 31.2206 28.0939 31.2206 28.2496C31.0691 28.2496 30.9176 28.2496 30.7615 28.2496C30.7615 28.0985 30.7615 27.9473 30.7615 27.7916C30.61 27.7916 30.4585 27.7916 30.3024 27.7916C30.3024 27.9427 30.3024 28.0939 30.3024 28.2496C29.9994 28.2496 29.6963 28.2496 29.3841 28.2496C29.0003 28.3193 28.6172 28.3942 28.2363 28.4787C28.3501 27.3435 28.5674 26.4855 29.1546 25.5013C29.6137 25.2722 29.6137 25.2722 30.1589 25.2866Z" fill="#F6FBEF"/>
<path d="M33.0571 24.5851C33.2086 24.6607 33.3601 24.7363 33.5162 24.8142C33.5162 26.1746 33.5162 27.535 33.5162 28.9367C33.6677 28.9367 33.8192 28.9367 33.9753 28.9367C34.2866 29.2369 34.592 29.5431 34.8936 29.8528C35.1956 30.0872 35.5005 30.318 35.8118 30.5399C35.2816 30.5399 34.7513 30.5399 34.2049 30.5399C34.2049 30.6911 34.2049 30.8422 34.2049 30.998C34.5079 30.9224 34.811 30.8468 35.1232 30.7689C35.1232 30.9957 35.1232 31.2224 35.1232 31.456C35.805 31.456 36.4868 31.456 37.1892 31.456C37.0377 31.6072 36.8862 31.7584 36.7301 31.9141C35.2498 31.8886 34.1998 31.4861 33.0571 30.5399C32.598 29.8958 32.598 29.8958 32.3684 29.3948C32.5957 29.0547 32.5957 29.0547 32.8275 28.7077C32.911 28.2438 32.911 28.2438 32.9226 27.7388C32.9315 27.555 32.9403 27.3712 32.9495 27.1819C32.9566 26.991 32.9637 26.8001 32.971 26.6035C32.9799 26.4099 32.9888 26.2164 32.9979 26.017C33.0195 25.5398 33.0386 25.0625 33.0571 24.5851Z" fill="#9BC95C"/>
<path d="M37.8778 23.3827C38.0512 23.381 38.2246 23.3792 38.4033 23.3774C39.7066 23.3818 41.1919 23.421 42.2395 24.2702C42.3153 24.3742 42.391 24.4781 42.4691 24.5852C41.9388 24.434 41.4085 24.2828 40.8621 24.1271C40.8621 24.2783 40.8621 24.4294 40.8621 24.5852C40.2594 24.553 39.6569 24.5194 39.0543 24.485C38.883 24.4759 38.7116 24.4669 38.5351 24.4577C37.2411 24.3821 37.2411 24.3821 36.73 24.1271C36.2909 24.0734 36.2909 24.0734 35.8117 24.0698C35.5703 24.061 35.5703 24.061 35.3239 24.0519C35.1819 24.0767 35.0398 24.1015 34.8935 24.1271C34.6662 24.4672 34.6662 24.4672 34.4344 24.8142C34.1313 24.8142 33.8283 24.8142 33.5161 24.8142C33.6309 24.3848 33.6309 24.3848 33.9752 23.8981C35.2962 23.4811 36.499 23.3687 37.8778 23.3827Z" fill="#F9FDF1"/>
<path d="M38.6669 22.2519C38.927 22.2487 39.1871 22.2454 39.4551 22.2421C40.14 22.2924 40.5161 22.396 41.0916 22.7529C41.0159 22.9796 40.9401 23.2064 40.8621 23.44C38.7409 23.44 36.6198 23.44 34.4343 23.44C34.7373 23.3644 35.0404 23.2888 35.3526 23.211C35.3526 23.0598 35.3526 22.9086 35.3526 22.7529C35.2011 22.6773 35.0496 22.6017 34.8935 22.5239C35.1444 22.5286 35.3953 22.5333 35.6539 22.5382C36.6888 22.5207 37.6139 22.2579 38.6669 22.2519Z" fill="#8DC63F"/>
<path d="M26.8589 25.5013C26.9346 25.5013 27.0104 25.5013 27.0884 25.5013C27.0884 26.4838 27.0884 27.4664 27.0884 28.4787C27.3157 28.5542 27.543 28.6298 27.7771 28.7077C27.7771 28.5565 27.7771 28.4054 27.7771 28.2496C27.9286 28.3252 28.0801 28.4008 28.2362 28.4787C27.7253 29.6519 27.2904 30.5211 26.1702 31.227C26.0187 31.227 25.8672 31.227 25.7111 31.227C25.7111 31.0003 25.7111 30.7735 25.7111 30.5399C24.802 30.6155 23.8929 30.6911 22.9563 30.769C22.9563 30.6934 22.9563 30.6178 22.9563 30.5399C23.1114 30.501 23.2664 30.462 23.4262 30.4218C24.7778 30.0555 25.6675 29.7781 26.4123 28.5315C26.6757 27.9115 26.7248 27.3741 26.7728 26.7037C26.7899 26.4781 26.8071 26.2526 26.8248 26.0202C26.836 25.8489 26.8473 25.6777 26.8589 25.5013Z" fill="#9BCA5A"/>
<path d="M19.7424 22.0658C24.9768 21.924 24.9768 21.924 27.0884 22.7529C26.8589 23.211 26.6293 23.669 26.3998 24.1271C26.276 24.0908 26.1522 24.0545 26.0247 24.0171C25.3884 23.8777 24.7876 23.8488 24.1364 23.8256C23.8804 23.816 23.6245 23.8064 23.3607 23.7965C23.0947 23.7875 22.8287 23.7785 22.5546 23.7692C22.285 23.7594 22.0154 23.7495 21.7377 23.7393C21.0726 23.715 20.4075 23.6916 19.7424 23.669C19.7424 23.5935 19.7424 23.5179 19.7424 23.44C21.4091 23.3644 23.0757 23.2889 24.7928 23.211C24.7171 23.0598 24.6413 22.9087 24.5632 22.7529C23.4269 22.7529 22.2906 22.7529 21.1198 22.7529C21.1198 22.6773 21.1198 22.6018 21.1198 22.5239C20.438 22.4105 20.438 22.4105 19.7424 22.2949C19.7424 22.2193 19.7424 22.1437 19.7424 22.0658Z" fill="#A0CC62"/>
<path d="M14.9215 24.1271C16.1842 24.0431 16.1842 24.0431 16.6836 24.4089C17.0664 24.9193 17.08 25.2124 17.0737 25.8448C17.0754 26.0219 17.0772 26.1991 17.079 26.3816C16.9684 26.9789 16.7609 27.182 16.2989 27.5625C16.2989 27.1846 16.2989 26.8067 16.2989 26.4174C15.9201 26.4174 15.5413 26.4174 15.1511 26.4174C14.7821 25.6812 14.9083 24.9433 14.9215 24.1271Z" fill="#8EC63E"/>
<path d="M34.2048 30.5399C34.8866 30.5399 35.5684 30.5399 36.2709 30.5399C36.2709 30.6911 36.2709 30.8422 36.2709 30.998C37.5587 30.998 38.8466 30.998 40.1735 30.998C40.022 31.3003 39.8704 31.6026 39.7143 31.9141C38.7295 31.9141 37.7447 31.9141 36.73 31.9141C36.73 31.8385 36.73 31.7629 36.73 31.6851C36.4696 31.6567 36.2092 31.6284 35.9409 31.5992C35.671 31.5519 35.4011 31.5047 35.1231 31.456C35.0473 31.3049 34.9716 31.1537 34.8935 30.998C34.6663 30.998 34.439 30.998 34.2048 30.998C34.2048 30.8468 34.2048 30.6957 34.2048 30.5399Z" fill="#8CC640"/>
<path d="M16.7581 30.0818C16.9618 30.2267 16.9618 30.2267 17.1697 30.3744C17.3511 30.4999 17.5325 30.6253 17.7194 30.7546C17.8978 30.8795 18.0762 31.0044 18.2601 31.1331C18.8424 31.4665 19.3112 31.5926 19.9719 31.6851C19.9719 31.7606 19.9719 31.8362 19.9719 31.9141C19.4416 31.9141 18.9114 31.9141 18.365 31.9141C18.2892 32.2164 18.2135 32.5187 18.1354 32.8302C17.9478 32.5781 17.7616 32.325 17.5759 32.0715C17.472 31.9307 17.3681 31.7899 17.2611 31.6448C16.9246 31.1307 16.7581 30.6997 16.7581 30.0818Z" fill="#E8F1DB"/>
<path d="M25.711 30.5399C25.711 30.7667 25.711 30.9934 25.711 31.227C23.9899 31.489 22.3897 31.4003 20.6606 31.227C20.6606 31.1514 20.6606 31.0759 20.6606 30.998C21.244 30.9206 21.8275 30.8444 22.4111 30.769C22.5747 30.7471 22.7383 30.7253 22.907 30.7028C23.8489 30.5821 24.7589 30.516 25.711 30.5399Z" fill="#8CC73C"/>
<path d="M37.9926 23.4114C38.2758 23.4145 38.2758 23.4145 38.5647 23.4176C39.0245 23.423 39.4842 23.4312 39.9439 23.44C39.9439 23.5156 39.9439 23.5912 39.9439 23.669C39.718 23.6845 39.718 23.6845 39.4875 23.7002C38.8072 23.7485 38.1273 23.8018 37.4474 23.8551C37.2103 23.8712 36.9733 23.8873 36.7291 23.9039C36.3895 23.9316 36.3895 23.9316 36.0431 23.9598C35.7293 23.9832 35.7293 23.9832 35.4092 24.0071C34.8081 24.0851 34.8081 24.0851 34.4344 24.8142C34.1313 24.8142 33.8283 24.8142 33.5161 24.8142C33.6309 24.3848 33.6309 24.3848 33.9752 23.8981C35.3382 23.461 36.5693 23.3813 37.9926 23.4114Z" fill="#DAEEBE"/>
<path d="M37.7344 22.0515C37.9472 22.0525 38.1599 22.0536 38.3791 22.0546C38.9008 22.0573 39.4223 22.0611 39.9439 22.0658C39.9439 22.1414 39.9439 22.217 39.9439 22.2948C39.7637 22.3087 39.5835 22.3226 39.3978 22.3369C37.8732 22.4571 37.8732 22.4571 36.357 22.6527C35.3308 22.7854 34.3198 22.7716 33.2866 22.7529C34.6254 21.8624 36.1797 22.0371 37.7344 22.0515Z" fill="#A4CD69"/>
<path d="M21.1199 31.9141C22.1805 31.9141 23.241 31.9141 24.3338 31.9141C23.6451 32.6012 23.6451 32.6012 23.0254 32.6182C22.6859 32.5743 22.6859 32.5743 22.3394 32.5296C21.9972 32.4884 21.9972 32.4884 21.648 32.4464C21.4737 32.4219 21.2995 32.3974 21.1199 32.3722C21.1199 32.221 21.1199 32.0698 21.1199 31.9141Z" fill="#E8F2D2"/>
<path d="M18.5945 23.8981C18.3301 24.4633 18.1244 24.8251 17.6762 25.2722C17.57 25.882 17.57 25.882 17.5328 26.5605C17.5156 26.7902 17.4984 27.0199 17.4808 27.2566C17.4695 27.4331 17.4583 27.6097 17.4467 27.7916C17.3709 27.7916 17.2952 27.7916 17.2171 27.7916C17.1922 27.3147 17.1745 26.8374 17.1597 26.3601C17.1491 26.0944 17.1384 25.8287 17.1274 25.555C17.2171 24.8142 17.2171 24.8142 17.6511 24.2595C18.1354 23.8981 18.1354 23.8981 18.5945 23.8981Z" fill="#E7F6D3"/>
<path d="M41.7805 28.4787C42.0078 28.4787 42.2351 28.4787 42.4692 28.4787C42.1784 29.3733 41.9107 29.8303 41.0918 30.3109C40.5753 30.4684 40.5753 30.4684 40.1736 30.5399C40.1736 30.3888 40.1736 30.2376 40.1736 30.0819C40.4009 30.0819 40.6281 30.0819 40.8623 30.0819C40.9286 29.9449 40.9948 29.8079 41.0631 29.6668C41.3214 29.1658 41.3214 29.1658 41.7805 28.4787Z" fill="#F2F8E2"/>
<path d="M31.2206 26.4174C31.7623 26.9578 31.7925 27.2829 31.9093 28.0206C31.682 27.945 31.4548 27.8694 31.2206 27.7916C31.2206 27.9427 31.2206 28.0939 31.2206 28.2496C31.0691 28.2496 30.9176 28.2496 30.7615 28.2496C30.7615 27.7206 30.7615 27.1915 30.7615 26.6464C30.913 26.5708 31.0645 26.4953 31.2206 26.4174Z" fill="#EDF5E0"/>
<path d="M42.9282 31.227C43.0039 31.3782 43.0797 31.5293 43.1577 31.6851C42.9793 32.1807 42.9793 32.1807 42.7129 32.7443C42.6256 32.9315 42.5383 33.1187 42.4484 33.3115C42.3795 33.455 42.3105 33.5985 42.2395 33.7463C42.0122 33.6708 41.7849 33.5952 41.5508 33.5173C41.9299 32.6977 42.4192 31.9718 42.9282 31.227Z" fill="#676766"/>
<path d="M17.6763 31.4561C18.4338 31.5316 19.1914 31.6072 19.9719 31.6851C19.9719 31.7607 19.9719 31.8362 19.9719 31.9141C19.4416 31.9141 18.9113 31.9141 18.365 31.9141C18.2892 32.2164 18.2134 32.5188 18.1354 32.8302C17.9839 32.3768 17.8324 31.9233 17.6763 31.4561Z" fill="#EEF3EB"/>
<path d="M19.2832 28.7077C19.2075 29.01 19.1317 29.3123 19.0536 29.6238C18.6749 29.5482 18.2961 29.4726 17.9058 29.3948C17.8301 29.168 17.7543 28.9413 17.6763 28.7077C18.3673 28.4937 18.5639 28.4685 19.2832 28.7077Z" fill="#F8FAEF"/>
<path d="M17.6763 29.8528C17.9035 29.8528 18.1308 29.8528 18.365 29.8528C18.5165 30.3063 18.668 30.7598 18.8241 31.227C18.5968 31.227 18.3695 31.227 18.1354 31.227C18.1354 31.0003 18.1354 30.7735 18.1354 30.5399C17.9839 30.5399 17.8324 30.5399 17.6763 30.5399C17.6763 30.3132 17.6763 30.0865 17.6763 29.8528Z" fill="#8FC63C"/>
<path d="M33.2867 29.3948C33.514 29.3948 33.7412 29.3948 33.9754 29.3948C34.0511 29.6971 34.1269 29.9994 34.2049 30.3109C33.9019 30.3865 33.5989 30.4621 33.2867 30.5399C33.2109 30.3132 33.1352 30.0864 33.0571 29.8528C33.1329 29.7017 33.2086 29.5505 33.2867 29.3948Z" fill="#8CC73B"/>
<path d="M42.9283 27.7916C43.2692 28.0183 43.2692 28.0183 43.617 28.2496C43.5412 28.6275 43.4655 29.0054 43.3874 29.3948C43.0287 29.1085 43.0287 29.1085 42.6987 28.7077C42.7705 28.2067 42.7705 28.2067 42.9283 27.7916Z" fill="#8EC440"/>
</svg>
