<svg width="160" height="160" viewBox="0 0 160 160" fill="none" xmlns="http://www.w3.org/2000/svg">
<path d="M87.948 46.5738L88.5422 47.3166L89.5822 49.3964L89.8793 50.5849V52.5162L89.4336 54.0018L88.3937 55.7846L86.7595 57.8644L84.8282 60.2414L83.6397 62.3212L83.194 63.8068V64.2525L85.8681 63.3612L89.4336 62.6184L90.9192 62.0241L91.662 61.4299L92.2563 60.2414L92.5534 59.35L92.8505 59.7957L92.9991 60.2414V61.2813L92.5534 62.4698L91.3649 63.6583L88.2451 65.7381L87.3537 66.4809L86.4624 67.9665L86.3138 68.7094L88.0965 67.2237L90.1764 66.0353L91.9591 65.441L92.7019 65.2925H96.1188L102.061 66.0353H104.735L106.221 65.5896L107.409 64.8468L108.152 64.2525L109.489 62.4698L109.638 62.7669L109.044 64.9953L108.152 66.6295L106.964 67.9665L105.775 68.7094L104.438 69.155L100.427 69.7493L96.8616 70.195L95.0789 70.7892L93.7419 71.532L95.9703 72.7205L97.753 73.909L99.8329 75.246L100.576 75.5432H102.21L103.844 74.8003L103.547 75.6917L102.358 76.7316L101.616 77.0288H99.8329L95.9703 76.286H94.7818L93.4447 76.5831L92.5534 77.0288L95.376 77.3259L97.753 78.0687L99.2386 78.8115L100.576 79.8514L101.616 80.8913L103.25 82.9712L105.33 85.6453L106.667 87.2795L108.301 88.6165L110.232 89.2107H112.312L113.649 89.0622L113.055 89.6564L110.975 90.6964L109.935 90.9935H107.261L105.627 90.3992L103.101 88.6165L101.17 86.9823L98.9415 85.3482L97.1588 84.6054L95.8217 84.1597L96.5645 85.6453L97.1588 88.0223L97.753 91.2906L98.3472 92.4791L99.6843 93.3704L100.724 93.6676L100.576 93.9647L100.13 94.1133H98.4958L97.3073 93.3704L96.1188 92.0334L94.4847 89.5079L93.5933 88.4679L92.1077 87.5766H91.5135L92.9991 89.3593L93.8904 90.8449L94.6332 92.7762L94.9303 94.2618V96.6388L94.1875 102.73V106.295L94.7818 107.929L96.1188 109.415L97.1588 110.306L97.6044 110.752L96.416 110.604L94.3361 109.861L92.7019 108.672L91.662 107.335L91.0678 105.85L90.4735 102.284L90.0278 98.273L89.285 96.0445L88.8394 95.3017V95.0046H88.5422L88.3937 95.7474L87.0566 97.9758L85.571 99.9071L84.6797 101.541L84.5311 102.73L84.8282 103.918L85.2739 104.661V104.958L84.3825 104.661L83.3426 103.473L83.0455 101.69L83.7883 97.8273V95.4503L83.194 93.8161L82.5998 97.5302L81.7084 99.7586L80.3714 101.69L79.3315 102.73L77.2516 104.364L74.5775 106.444L72.9433 107.781L71.7549 109.118L71.1606 110.455L71.0121 111.049V114.615L70.4178 114.02L69.5264 112.238L69.0808 110.455V108.821L69.5264 107.335L70.5664 105.552L72.2005 103.473L74.1318 101.096L75.3203 99.0158L75.9146 97.233L74.429 97.8273L71.4577 98.4215L69.0808 98.8672L67.5952 99.61L66.8524 100.65L66.5552 101.838H66.2581L65.961 100.798L66.1095 99.4614L66.7038 98.5701L68.1894 97.233L70.5664 95.7474L71.6063 94.8561L72.4977 93.3704L72.6462 92.6276L71.0121 93.9647L69.0808 95.1532L67.0009 95.896L66.2581 96.0445H62.8412L56.7502 95.3017H54.3732L53.0362 95.5989L51.6991 96.3417L50.8078 97.0845L49.6193 98.7186H49.4707L49.6193 97.233L50.3621 95.4503L51.2535 94.1133L52.442 93.0733L53.9276 92.3305L57.1959 91.7363L61.3556 91.2906L63.584 90.6964L64.6239 90.1021L62.8412 89.2107L60.9099 87.5766L59.2758 86.2395L58.3844 85.7938H56.7502L55.5617 86.3881H55.2646L55.4132 85.6453L56.6017 84.6054L57.3445 84.3082H59.1272L62.8412 85.051H64.1783L65.5153 84.7539L66.4067 84.3082L63.7326 84.0111L61.5042 83.4169L59.2758 82.2284L57.493 80.5942L56.3045 79.1086L54.3732 76.5831L52.7391 74.5032L51.5506 73.3147L50.065 72.4234L48.7279 72.1263H46.7966L45.4596 72.2748L46.2024 71.532L47.9851 70.6406L49.0251 70.3435H51.6991L53.3333 70.9378L55.2646 72.2748L57.3445 73.909L59.5729 75.6917L61.3556 76.5831L62.8412 77.0288L62.0984 75.0975L61.207 70.0464L60.6128 68.8579L59.87 68.2637L58.2358 67.6694L58.3844 67.3723L58.8301 67.2237H60.4642L61.3556 67.6694L62.0984 68.2637L63.4355 70.195L64.6239 71.9777L65.3667 72.7205L66.5552 73.6119L67.7437 74.0575L66.7038 72.8691L65.3667 70.9378L64.6239 69.3036L64.1783 67.818L64.0297 66.7781V64.6982L64.7725 58.7558V54.8932L64.1783 53.4076L62.9898 51.922L61.3556 50.7335L61.9498 50.5849L64.0297 51.1792L65.8124 52.2191L66.8524 53.259L67.5952 54.5961L68.0408 55.9331L68.6351 60.2414L68.9322 62.9155L69.5264 64.8468L70.2693 66.1838L71.3092 64.104L73.5376 61.1328L74.2804 59.7957L74.429 59.2015V58.1615L73.8347 56.6759L73.6862 56.3788L74.5775 56.6759L75.3203 57.4187L75.766 58.1615L75.9146 59.7957L75.1718 63.5097V65.8867L75.766 67.3723L76.3602 63.8068L77.2516 61.5784L78.2915 59.9443L79.6286 58.6072L81.7084 56.973L84.3825 54.8932L86.0167 53.5561L87.2052 52.2191L87.7994 51.0306L87.948 50.4364V46.5738ZM78.2915 70.0464L76.2117 70.4921L74.429 71.2349L72.4977 72.5719L71.3092 73.7604L69.9721 75.8403L69.2293 77.623L68.9322 78.9601V82.2284L69.3779 84.1597L70.5664 86.5367L71.9034 88.1708L73.2405 89.3593L74.7261 90.2507L76.8059 90.9935L78.2915 91.2906H80.6685L83.194 90.6964L85.2739 89.6564L86.7595 88.4679L88.0965 86.9823L89.285 84.9025L89.8793 83.1198L90.0278 82.3769V78.8115L89.285 76.4345L88.2451 74.5032L86.6109 72.7205L84.8282 71.3834L82.7484 70.4921L80.6685 70.0464H78.2915Z" fill="#F98027"/>
<path d="M76.5088 17.3073H83.6397L88.3937 17.753L92.8505 18.4958L98.1987 19.8328L102.953 21.467L106.37 22.9526L108.895 24.1411L112.312 26.0724L114.689 27.558L117.66 29.6379L119.74 31.272L121.82 33.0548L123.603 34.6889L127.019 38.1058L128.357 39.74L129.991 41.6713L131.922 44.3454L133.408 46.5738L135.339 49.8421L137.27 53.5562L138.904 57.4187L140.093 60.6871L141.281 64.8468L142.321 69.7493L142.915 74.3547L143.064 76.1374V84.4568L142.47 89.805L141.43 95.1532L140.241 99.3129L138.904 103.175L137.27 106.889L136.082 109.266L134.596 112.089L132.516 115.357L130.585 118.032L128.951 120.111L127.168 122.191L125.088 124.42L122.86 126.648L121.671 127.688L119.74 129.322L117.214 131.253L115.135 132.739L112.015 134.67L108.449 136.75L104.884 138.384L99.6843 140.316L95.0789 141.653L90.0278 142.693L86.6109 143.138L81.7084 143.435H79.1829L74.2804 143.138L69.8236 142.544L64.9211 141.504L60.9099 140.316L57.9387 139.276L54.2247 137.79L50.5107 136.007L46.9452 133.928L43.8254 131.848L41.0028 129.768L38.9229 127.985L35.9517 125.311L33.8718 123.231L32.8319 122.043L31.0492 119.963L29.1179 117.437L27.038 114.466L25.1068 111.198L24.8096 110.455H23.4726L22.5812 110.009L21.8384 109.266L21.3927 108.375V106.889L21.987 105.701L22.1355 105.255L20.6499 101.541L19.3129 97.3816L18.273 93.0733L17.5302 88.6165L17.0845 84.1597V76.286L17.5302 71.8291L18.273 67.5209L19.1643 63.8069L20.3528 59.9443L21.8384 55.9331L23.7697 51.7734L25.5524 48.5051L27.3352 45.6824L29.415 42.7112L31.0492 40.6314L32.8319 38.5515L34.4661 36.7688L37.7344 33.5004L39.3686 32.1634L41.2999 30.5292L44.1225 28.4494L46.6481 26.8152L48.8765 25.4782L52.1448 23.6954L56.4531 21.7641L60.6128 20.2785L64.1783 19.2386L68.0408 18.3472L72.9433 17.6044L76.5088 17.3073ZM78.2915 18.4958L73.6861 18.7929L69.3779 19.3872L65.2182 20.2785L61.5042 21.3185L57.6416 22.6555L53.9276 24.2897L50.065 26.221L47.0938 28.0037L44.2711 29.935L42.4884 31.272L41.0028 32.4605L39.0715 34.0947L37.1402 35.8774L34.3175 38.7001L32.9805 40.3342L31.792 41.6713L29.5636 44.6425L28.078 46.8709L26.2952 49.8421L24.364 53.4076L22.7298 57.1216L21.3927 60.8356L20.3528 64.2525L19.3129 68.7094L18.7186 72.4234L18.4215 75.5432L18.273 78.3658V82.2284L18.5701 86.6852L19.1643 90.9935L19.9071 94.5589L20.9471 98.4215L22.4327 102.73L23.324 104.81L25.1068 104.958L26.2952 105.552L26.8895 106.295L27.1866 107.781L26.7409 109.118L25.9981 109.861L26.1467 110.455L27.4837 112.832L29.7121 116.1L31.0492 117.883L32.2377 119.369L33.8718 121.3L35.6546 123.231L38.3287 125.905L39.5172 126.945L41.4484 128.579L43.8254 130.362L47.8366 133.036L50.9563 134.819L54.8189 136.75L57.7901 137.939L60.6128 138.83L63.2869 139.424H67.5952L70.7149 138.83L72.6462 138.087L73.9833 137.047L74.8746 135.859L75.4689 134.225V131.996L74.7261 129.768L74.5775 129.619L71.1606 129.174L67.298 128.282L64.3268 127.391L61.0585 126.202L57.1959 124.42L54.0761 122.637L51.402 120.854L48.8765 118.923L46.9452 117.289L44.7168 115.209L42.6369 112.98L41.2999 111.346L39.5172 108.969L38.0315 106.741L36.3974 103.918L35.2089 101.541L33.8718 98.5701L32.2377 93.6676L31.1978 89.2107L30.6035 84.7539L30.4549 82.6741V77.9201L30.9006 73.3147L31.4949 69.8978L32.5348 65.8867L33.8718 62.0241L35.506 58.3101L37.2887 55.0418L39.0715 52.2191L40.8542 49.8421L42.1913 48.208L44.8653 45.2367L46.0538 44.0483L47.2423 43.0083L49.1736 41.3742L51.8477 39.4429L54.3732 37.8087L57.0473 36.3231L61.0585 34.3918L64.7725 33.0548L67.8923 32.1634L71.3092 31.4206L74.2804 30.9749L78.4401 30.6778H81.7084L85.8681 30.9749L90.4735 31.7177L94.4847 32.7576L98.3472 34.0947L102.656 36.026L105.33 37.5116L108.152 39.2943L110.529 41.077L112.163 42.4141L113.649 43.7511L114.837 44.7911L116.472 46.4252L117.512 47.6137L119.591 50.1393L121.374 52.6648L122.117 53.7047L124.048 54.0018L125.385 54.8932L125.98 55.9331L126.128 56.3788V58.013L125.534 59.2015L125.385 59.9443L126.574 62.7669L127.762 66.3324L128.654 69.8978L129.396 74.3547L129.694 77.623V82.8226L129.396 86.2395L128.654 90.6964L127.762 94.2618L126.574 97.8273L125.237 100.947L124.048 103.473L122.414 106.295L120.631 108.969L119.294 110.752L117.957 112.386L116.62 113.872L115.58 115.06L113.946 116.695L112.758 117.734L110.232 119.814L107.261 121.894L105.032 123.231L101.764 125.014L97.4559 126.945L94.4847 127.837L92.7019 128.134L90.4735 128.282L90.0278 129.322L89.4336 131.699L89.285 132.591V133.928L89.7307 135.413L90.7706 137.047L92.4048 138.236L93.8904 138.83L94.4847 138.979H97.6044L100.279 138.384L103.844 137.196L108.301 135.265L111.569 133.482L114.837 131.402L117.66 129.322L119.294 127.985L121.226 126.351L123.454 124.271L125.385 122.34L126.425 121.151L128.208 119.071L130.436 116.1L132.813 112.535L134.596 109.415L136.676 105.255L138.31 101.096L139.499 97.5302L140.539 93.3705L141.281 89.2107L141.727 85.1996L141.876 82.5255V77.9201L141.578 73.7604L140.984 69.4522L140.093 65.2925L138.756 60.6871L137.122 56.3788L135.339 52.5162L133.408 48.9508L131.328 45.6824L129.248 42.8598L127.317 40.4828L125.534 38.4029L121.671 34.5404L120.483 33.5004L117.957 31.4206L115.283 29.4893L112.312 27.558L109.192 25.7753L106.815 24.5868L103.993 23.2497L100.427 21.9127L96.7131 20.7242L92.4048 19.6843L87.7994 18.9415L84.8282 18.6444L82.0056 18.4958H78.2915ZM76.8059 31.8663L72.7948 32.312L68.9322 33.0548L65.6639 33.9461L62.247 35.1346L59.2757 36.4717L56.3045 37.9573L53.1848 39.8886L50.5107 41.8198L48.5794 43.454L45.6082 46.1281L43.3797 48.5051L41.7456 50.5849L40.26 52.5162L38.1801 55.7846L36.2488 59.35L34.6146 63.2126L33.2776 67.3723L32.5348 70.4921L31.9406 73.909L31.6434 76.8802V83.5654L32.0891 87.7251L32.9805 92.0334L33.8718 95.1532L34.9118 98.1244L36.2488 101.096L37.7344 104.067L39.6657 107.187L41.597 109.861L43.2312 111.792L45.9053 114.763L48.1337 116.843L49.7679 118.18L51.6991 119.666L54.3732 121.448L56.8988 122.934L59.2757 124.123L62.247 125.46L67.1495 127.094L71.0121 127.985L73.389 128.431H74.1318L73.8347 127.094L72.052 122.488L73.0919 124.123L75.4689 128.282L76.9545 130.808L78.4401 132.739L79.7771 134.225L81.1142 135.413L81.857 135.71H83.194L84.3825 134.967L86.1653 133.185L87.7994 130.956L88.9879 129.025L90.4735 126.351L91.9591 123.825L92.4048 123.231L91.0678 126.202L90.9192 127.094H92.1077L95.5246 126.351L98.7929 125.162L101.17 123.974L104.587 122.191L107.409 120.409L109.935 118.477L111.421 117.289L113.203 115.655L114.689 114.318L116.472 112.386L118.106 110.455L120.186 107.632L121.968 104.81L124.048 100.798L125.237 98.1244L126.277 95.3017L127.317 91.5877L128.059 87.7251L128.505 83.714V76.7316L128.059 72.7205L127.168 68.4122L125.98 64.4011L124.494 60.6871L124.345 60.3899L122.563 60.5385L121.226 60.2414L120.037 59.35L119.443 58.3101L119.294 57.8644V56.3788L120.037 54.8932L120.78 54.299L120.631 53.7047L119.443 51.922L117.957 49.9907L116.175 47.9108L114.392 45.9796L113.352 44.9396L112.163 43.8997L110.232 42.2655L107.409 40.1857L104.587 38.4029L100.576 36.3231L97.1588 34.8375L92.9991 33.5004L89.1365 32.6091L85.1253 32.0148L83.3426 31.8663H76.8059Z" fill="#1768B7"/>
<path d="M76.2117 4.23401H84.0854L89.4336 4.67969L94.1875 5.4225L99.5357 6.61098L103.993 7.94803L107.707 9.28508L111.866 11.0678L116.62 13.4448L120.631 15.8218L123.9 18.0502L126.722 20.13L128.654 21.7642L130.288 23.1012L132.516 25.1811L136.23 28.8951L137.27 30.0836L139.053 32.1634L141.281 35.1347L143.213 37.8088L145.144 40.9285L146.927 44.0483L148.709 47.4652L150.641 51.922L152.126 56.0817L153.315 59.9443L154.355 64.2526L155.097 68.2637L155.692 73.1662L155.989 78.8115V80.8914L155.84 84.754L155.395 89.3594L154.652 94.1133L153.612 98.7187L152.423 102.878L151.086 106.741L149.601 110.306L147.818 114.169L146.035 117.437L144.253 120.409L142.024 123.677L139.944 126.5L138.31 128.431L136.973 130.065L134.745 132.442L131.328 135.859L130.139 136.899L128.059 138.682L125.534 140.613L122.86 142.544L119.889 144.475L116.323 146.555L113.5 148.041L109.192 149.972L104.884 151.606L100.576 152.943L96.4159 153.983L91.662 154.875L86.6109 155.469L84.5311 155.617H75.766L70.8635 155.172L66.1095 154.429L61.9498 153.538L57.7901 152.349L53.779 151.012L49.4707 149.229L45.7567 147.447L42.6369 145.812L38.7743 143.436L35.8031 141.356L33.2776 139.424L31.6434 138.087L29.5636 136.305L27.1866 134.076L24.8096 131.699L23.7697 130.511L22.4326 129.025L21.0956 127.391L19.0157 124.717L15.7474 119.814L13.8161 116.546L11.5877 112.238L9.95354 108.524L8.46793 104.513L7.27944 100.799L6.09096 96.0446L5.34815 92.182L4.75391 87.5766L4.45679 83.8626V75.9889L4.90247 70.7893L5.64527 66.0353L6.53664 61.8756L7.72513 57.5673L9.35929 52.8134L10.9935 48.9508L12.7762 45.2368L14.7075 41.6713L16.9359 38.1059L18.7186 35.5803L20.6499 33.0548L21.987 31.4206L23.7697 29.3408L25.9981 26.9638L28.5236 24.4383L29.7121 23.3984L31.1977 22.0613L33.2776 20.4271L35.9517 18.3473L39.5171 15.9703L42.4884 14.1876L45.4596 12.5534L45.1625 11.2164V9.73076L45.7567 8.09659L46.7966 6.9081L47.8365 6.1653L49.3222 5.71962H50.8078L52.2934 6.1653L53.6304 7.05666L54.5218 8.24515V8.54227L58.6815 7.20523L64.6239 5.71962L69.8235 4.82825L73.9833 4.38257L76.2117 4.23401ZM75.6174 5.57106L70.7149 6.01674L65.3667 6.9081L60.9099 7.94803L56.4531 9.28508L54.9675 9.87932L54.6703 12.1077L53.779 13.5933L52.5905 14.4847L51.1049 15.0789H49.1736L47.5394 14.4847L46.3509 13.5933L43.2312 15.2275L39.3686 17.6045L36.3974 19.6843L34.4661 21.1699L32.0891 23.1012L30.6035 24.4383L29.415 25.4782L28.2265 26.6667L27.038 27.7066L25.9981 28.8951L24.8096 30.0836L23.4726 31.7178L22.2841 33.0548L20.3528 35.5803L18.4215 38.2544L16.6388 41.0771L14.5589 44.6426L12.1819 49.3965L10.5478 53.4076L8.76505 58.6073L7.57656 63.0641L6.6852 67.5209L6.09096 71.9777L5.79383 75.6918V84.0112L6.23952 89.0622L6.98232 93.8162L8.02225 98.5701L9.21073 102.581L10.5478 106.444L12.1819 110.306L13.9647 114.02L15.3017 116.546L17.0845 119.517L18.5701 121.746L20.3528 124.271L21.987 126.351L23.6211 128.282L24.6611 129.471L25.9981 130.956L30.3064 135.265L31.9405 136.602L33.2776 137.79L35.8031 139.721L38.4772 141.653L41.7456 143.733L45.1625 145.664L47.3909 146.852L51.6991 148.784L56.0074 150.418L60.9099 151.903L65.3667 152.943L70.7149 153.835L75.1717 154.28L78.5886 154.429H81.857L87.0566 154.132L91.8105 153.538L96.4159 152.646L100.576 151.606L105.924 149.824L109.638 148.338L113.5 146.555L117.363 144.475L121.226 142.098L123.9 140.167L125.682 138.83L127.168 137.642L129.099 136.007L130.585 134.67L132.516 132.888L134.299 131.105L135.339 129.916L136.824 128.282L138.162 126.648L140.241 123.974L141.876 121.597L143.807 118.626L145.59 115.506L147.521 111.792L149.155 108.078L150.641 104.067L151.829 100.353L153.018 95.5989L153.76 91.5878L154.355 86.8338L154.652 81.3371V78.5144L154.503 74.8004L153.909 69.1551L152.869 63.5098L151.829 59.4986L150.046 54.0019L148.264 49.6936L146.184 45.3854L144.104 41.6713L142.024 38.403L140.093 35.7289L138.607 33.7976L137.27 32.1634L135.487 30.0836L133.11 27.5581L131.179 25.6268L129.991 24.5868L128.505 23.2498L126.871 21.9127L124.197 19.8329L121.82 18.1987L119.294 16.5646L115.729 14.4847L112.015 12.5534L107.558 10.6221L103.398 9.13652L98.9415 7.79947L93.4447 6.61098L88.2451 5.86818L84.8282 5.57106H75.6174Z" fill="#1869B7"/>
<path d="M79.1829 73.3148H79.48L86.1653 84.9025V85.1996H81.857L81.2628 84.4568L80.6685 83.2683H82.8969L80.6685 79.4058L79.48 77.3259V77.0288H79.1829L78.8858 77.9201L75.766 83.2683H77.8459L77.6973 84.0111L76.8059 85.1996H72.7948L72.6462 84.6054L75.0232 80.4457L77.1031 76.8802L79.1829 73.3148Z" fill="#1366B6"/>
<path d="M69.6751 130.956L71.0121 131.105L71.9035 131.699L72.4977 132.442L72.7948 133.333L72.6463 134.67L72.052 135.71L71.1607 136.305L70.5664 136.453H69.3779L68.1895 135.859L67.4467 134.819L67.2981 134.373V133.036L67.8923 131.848L68.6351 131.253L69.6751 130.956Z" fill="#0E64B7"/>
<path d="M94.6332 130.808L96.1188 131.105L97.0102 131.848L97.4559 132.739V134.225L96.8616 135.413L95.8217 136.156L95.376 136.305H94.1875L93.1476 135.859L92.2562 134.819L91.9591 133.928L92.1077 132.591L92.7019 131.699L93.7418 130.956L94.6332 130.808Z" fill="#0D63B7"/>
<path d="M81.56 127.837H83.1941L84.0855 128.282L84.9769 129.322L85.1254 129.768V131.105L84.5312 132.293L83.7884 132.888L83.1941 133.185H81.56L80.3715 132.442L79.7772 131.551L79.6287 130.065L80.0743 129.025L80.8171 128.282L81.56 127.837Z" fill="#0D63B6"/>
<path d="M147.967 86.3881L148.412 86.9824L149.155 88.6165V88.9137L152.275 88.7651L151.532 89.5079L150.492 90.3993H150.195L150.344 91.2906L151.235 93.2219L150.938 93.3705L148.709 92.0334L148.115 92.3306L146.481 93.6676H146.332L146.481 92.3306L146.63 90.8449L144.401 89.5079L144.847 89.2108L147.224 88.9137L147.818 86.5367L147.967 86.3881Z" fill="#1D6BB7"/>
<path d="M74.8746 50.2878L76.0631 50.4364L76.9545 51.1792L77.2516 51.922L77.1031 53.1105L76.5088 54.0019L75.3203 54.4475L74.1318 54.1504L73.389 53.4076L73.0919 52.0706L73.5376 51.0306L74.2804 50.4364L74.8746 50.2878Z" fill="#F9852F"/>
<path d="M60.7614 100.947H62.0984L62.9898 101.541L63.4355 102.284V103.473L62.8412 104.364L62.3955 104.81L61.9499 104.958H60.9099L59.87 104.364L59.4243 103.621V102.284L59.87 101.541L60.3157 101.096L60.7614 100.947Z" fill="#F9842D"/>
<path d="M100.427 95.896H101.913L102.804 96.4902L103.25 97.3816L103.101 98.7187L102.358 99.61L101.616 99.9071L100.279 99.7586L99.5358 99.1643L99.2386 98.5701V97.0845L99.6843 96.3417L100.427 95.896Z" fill="#F9852E"/>
<path d="M49.9164 82.0798H51.2534L52.1448 82.6741L52.5905 83.2683L52.739 84.1597L52.2934 85.3482L51.5506 85.9424L51.2534 86.091H50.065L49.3221 85.6453L48.7279 84.9025L48.5793 83.714L49.025 82.6741L49.9164 82.0798Z" fill="#F9842D"/>
<path d="M55.7103 61.1328H57.0474L57.9388 61.727L58.3844 62.6184L58.2359 63.9554L57.3445 64.9953L56.8988 65.1439H55.7103L54.819 64.5497L54.3733 63.8068V62.3212L55.1161 61.4299L55.7103 61.1328Z" fill="#F9842D"/>
<path d="M95.3761 56.0817H96.8617L97.7531 56.676L98.1988 57.7159L98.0502 58.9044L97.3074 59.7957L96.5646 60.0929L95.2275 59.9443L94.4847 59.3501L94.1876 58.9044L94.0391 57.8645L94.4847 56.8245L95.079 56.2303L95.3761 56.0817Z" fill="#F9842D"/>
<path d="M106.072 74.9489H107.707L108.746 75.8403L108.895 76.286V77.623L108.449 78.3658L107.261 78.9601L106.072 78.8115L105.181 78.0687L104.884 77.4744V76.286L105.478 75.3946L106.072 74.9489Z" fill="#F9822A"/>
<path d="M10.845 81.7827L11.2907 82.377L11.7364 83.714H14.1133L13.5191 84.4568L12.6277 85.1996L13.3705 86.9823V87.2795L12.6277 86.9823L11.5878 86.3881L10.845 86.5367L9.65651 87.5766L9.50795 87.1309L9.80507 85.3482L8.1709 84.3082L8.31946 84.0111L10.3993 83.8626L10.5479 82.6741L10.845 81.7827Z" fill="#246EB7"/>
<path d="M40.26 116.695H40.5572L41.3 118.329V118.626L43.6769 118.477V118.774L42.1913 119.963L42.637 121.3L42.7856 122.043L42.0428 121.746L41.0028 121.151L40.4086 121.448L39.0715 122.34L39.2201 121.003L39.3687 120.26L37.7345 119.22L37.5859 118.923L39.8143 118.774L40.26 116.695Z" fill="#236DB6"/>
<path d="M100.279 11.2163H100.576L101.467 12.999H103.695L103.101 13.7418L102.358 14.3361H102.061L102.953 16.5645L102.061 16.2674L101.17 15.6731L100.427 15.8217L99.2387 16.8616L99.0901 16.2674L99.5358 14.6332L98.793 14.3361L97.6045 13.5933L98.1987 13.2962H99.8329L100.279 11.2163Z" fill="#236DB5"/>
<path d="M89.5822 9.87927L90.1764 10.1764L91.0678 10.7706L92.2563 10.1764L92.5534 10.325L91.9591 11.662L92.9991 12.7019V12.8505L91.2163 12.7019L90.9192 13.5933L90.4735 14.1875L90.1764 13.1476V12.5534L88.5422 12.4048V12.1077L89.7307 11.5134L89.5822 9.87927Z" fill="#2C75BB"/>
<path d="M76.3603 22.3584H76.5088L76.6574 23.9926L78.2915 24.2897V24.5868L76.9545 25.1811L77.1031 26.8152L76.0631 25.9239L75.4689 25.7753L74.2804 26.221L74.429 25.6267L74.7261 25.0325L74.5775 24.2897L73.8347 23.3983L75.6174 23.5469L76.3603 22.3584Z" fill="#2C71B6"/>
</svg>
